<svg width="139" height="44" viewBox="0 0 139 44" fill="none" xmlns="http://www.w3.org/2000/svg">
<circle cx="22" cy="22" r="22" fill="#53C2B9"/>
<path d="M37.4993 12.7273V22.5859C37.4993 24.6591 36.0675 26.1506 33.7408 26.1506C31.4215 26.1506 29.9822 24.6591 29.9822 22.5859V12.7273H27.6779V22.7724C27.6779 25.979 30.0792 28.2536 33.7408 28.2536C37.4023 28.2536 39.8111 25.979 39.8111 22.7724V12.7273H37.4993ZM45.2121 21.1989C45.2121 19.3718 46.3307 18.3278 47.8818 18.3278C49.3957 18.3278 50.3129 19.3196 50.3129 20.9826V28H52.5427V20.7141C52.5427 17.8803 50.9841 16.3963 48.6425 16.3963C46.9198 16.3963 45.7938 17.1942 45.2643 18.4098H45.1226V16.5455H42.9823V28H45.2121V21.1989ZM55.5331 28H57.7629V16.5455H55.5331V28ZM56.6592 14.7781C57.4273 14.7781 58.0686 14.1815 58.0686 13.4506C58.0686 12.7198 57.4273 12.1158 56.6592 12.1158C55.8836 12.1158 55.2497 12.7198 55.2497 13.4506C55.2497 14.1815 55.8836 14.7781 56.6592 14.7781ZM60.9416 28H70.6064V26.0163H63.2459V21.3406H70.0172V19.3643H63.2459V14.7109H70.5169V12.7273H60.9416V28ZM75.1759 16.5455H72.7298L76.2497 22.2727L72.6851 28H75.1311L77.7039 23.7195L80.2842 28H82.7227L79.1208 22.2727L82.6929 16.5455H80.2544L77.7039 21.005L75.1759 16.5455ZM84.9823 32.2955H87.2121V26.2177H87.3463C87.749 26.9485 88.5693 28.2237 90.6574 28.2237C93.4316 28.2237 95.445 26.0014 95.445 22.2951C95.445 18.5813 93.4017 16.3963 90.635 16.3963C88.5097 16.3963 87.7416 17.6939 87.3463 18.4023H87.1599V16.5455H84.9823V32.2955ZM87.1673 22.2727C87.1673 19.8789 88.2114 18.2905 90.1578 18.2905C92.1787 18.2905 93.1929 19.9982 93.1929 22.2727C93.1929 24.5696 92.1489 26.3221 90.1578 26.3221C88.2412 26.3221 87.1673 24.6815 87.1673 22.2727ZM97.9433 28H100.173V21.005C100.173 19.506 101.329 18.4247 102.91 18.4247C103.372 18.4247 103.894 18.5067 104.073 18.5589V16.4261C103.85 16.3963 103.41 16.3739 103.126 16.3739C101.784 16.3739 100.635 17.1346 100.218 18.3651H100.098V16.5455H97.9433V28ZM110.529 28.2312C113.028 28.2312 114.795 27.0007 115.302 25.1364L113.192 24.756C112.789 25.8374 111.82 26.3892 110.552 26.3892C108.643 26.3892 107.36 25.1513 107.3 22.9439H115.444V22.1534C115.444 18.0146 112.968 16.3963 110.373 16.3963C107.181 16.3963 105.078 18.8274 105.078 22.3473C105.078 25.9045 107.151 28.2312 110.529 28.2312ZM107.308 21.2734C107.397 19.6477 108.576 18.2383 110.388 18.2383C112.118 18.2383 113.251 19.521 113.259 21.2734H107.308ZM126.501 19.342C126.039 17.5597 124.644 16.3963 122.169 16.3963C119.581 16.3963 117.746 17.761 117.746 19.7894C117.746 21.4151 118.731 22.4964 120.878 22.9737L122.817 23.3988C123.921 23.6449 124.436 24.1371 124.436 24.853C124.436 25.7404 123.489 26.4339 122.027 26.4339C120.692 26.4339 119.834 25.8597 119.566 24.7337L117.411 25.0618C117.784 27.0902 119.469 28.2312 122.042 28.2312C124.809 28.2312 126.725 26.7621 126.725 24.6889C126.725 23.0707 125.696 22.0714 123.593 21.5866L121.773 21.169C120.513 20.8707 119.969 20.4457 119.976 19.6701C119.969 18.7901 120.923 18.1637 122.191 18.1637C123.578 18.1637 124.219 18.9318 124.48 19.6999L126.501 19.342ZM137.76 19.342C137.298 17.5597 135.903 16.3963 133.427 16.3963C130.84 16.3963 129.005 17.761 129.005 19.7894C129.005 21.4151 129.99 22.4964 132.137 22.9737L134.076 23.3988C135.18 23.6449 135.694 24.1371 135.694 24.853C135.694 25.7404 134.747 26.4339 133.286 26.4339C131.951 26.4339 131.093 25.8597 130.825 24.7337L128.67 25.0618C129.042 27.0902 130.728 28.2312 133.301 28.2312C136.067 28.2312 137.984 26.7621 137.984 24.6889C137.984 23.0707 136.955 22.0714 134.852 21.5866L133.032 21.169C131.772 20.8707 131.227 20.4457 131.235 19.6701C131.227 18.7901 132.182 18.1637 133.45 18.1637C134.837 18.1637 135.478 18.9318 135.739 19.6999L137.76 19.342Z" fill="black"/>
</svg>
